<svg width="165" height="142" viewBox="0 0 165 142" xmlns="http://www.w3.org/2000/svg" xmlns:xlink="http://www.w3.org/1999/xlink"><defs><polygon id="a" points="0.06 0.371106609 129.948393 0.371106609 129.948393 140.719 0.06 140.719"/></defs><g fill="none" fill-rule="evenodd"><g><g><g><mask id="b" fill="#fff"><use xlink:href="#a"/></mask><g/><path d="M114.173,76.186 C111.859,69.455 106.835,65.616 101.514,61.565 C99.737,60.212 97.92,58.825 96.157,57.294 L96.153,47.76 C98.053,48.305 100.006,48.887 101.052,49.364 C104.255,50.831 105.125,51.67 106.528,54.651 C106.528,54.652 106.529,54.652 106.529,54.652 C106.581,54.761 106.649,54.858 106.726,54.949 C106.745,54.971 106.763,54.991 106.782,55.011 C106.861,55.093 106.947,55.169 107.045,55.23 C107.053,55.235 107.062,55.238 107.07,55.243 C107.16,55.297 107.258,55.338 107.361,55.371 C107.388,55.38 107.414,55.388 107.442,55.394 C107.551,55.422 107.664,55.442 107.781,55.442 C107.783,55.442 107.785,55.443 107.786,55.443 C107.789,55.443 107.791,55.442 107.793,55.442 C107.817,55.442 107.84,55.442 107.864,55.44 L116.76,54.943 C116.792,54.941 116.821,54.933 116.852,54.929 C116.897,54.923 116.942,54.918 116.986,54.908 C117.032,54.898 117.076,54.884 117.121,54.869 C117.161,54.856 117.2,54.843 117.239,54.825 C117.284,54.806 117.326,54.784 117.368,54.76 C117.403,54.74 117.438,54.72 117.471,54.697 C117.514,54.668 117.554,54.635 117.593,54.601 C117.611,54.585 117.632,54.574 117.65,54.556 C117.66,54.546 117.667,54.535 117.677,54.525 C117.714,54.487 117.747,54.446 117.779,54.404 C117.803,54.373 117.827,54.343 117.848,54.312 C117.875,54.271 117.896,54.227 117.919,54.183 C117.937,54.147 117.956,54.112 117.971,54.075 C117.988,54.031 118,53.986 118.013,53.941 C118.024,53.9 118.036,53.86 118.044,53.818 C118.051,53.775 118.055,53.731 118.058,53.687 C118.062,53.641 118.065,53.594 118.064,53.547 C118.064,53.531 118.067,53.516 118.066,53.5 C118.065,53.474 118.057,53.449 118.054,53.423 C118.048,53.374 118.041,53.325 118.03,53.277 C118.021,53.237 118.01,53.2 117.997,53.162 C117.982,53.113 117.964,53.066 117.943,53.019 C117.927,52.986 117.911,52.955 117.893,52.923 C117.866,52.875 117.838,52.829 117.805,52.784 C117.785,52.757 117.764,52.732 117.742,52.707 C117.719,52.679 117.7,52.648 117.674,52.622 L103.941,38.738 C106.832,38.904 110.967,39.711 114.668,40.547 C118.845,47.158 121.055,54.771 121.055,62.611 C121.055,66.936 120.053,72.398 118.413,77.159 C116.968,76.672 115.533,76.355 114.173,76.186 Z M94.391,55.69 C94.093,55.405 93.797,55.115 93.505,54.819 C90.014,51.271 88.204,46.668 88.2049996,42.002 C89.419,44.362 91.389,46.391 93.922,47.122 L94.387,47.255 L94.391,55.69 Z M92.687,25.489 C96.509,25.525 99.996,26.816 103.073,29.33 C99.974,30.713 97.177,30.376 96.582,30.279 C95.322,29.538 93.81,27.473 92.687,25.489 Z M99.336,79.954 C98.889,73.832 93.844,68.459 88.531,62.807 C82.48,56.369 76.223,49.712 76.286,41.458 C76.286,41.456 76.286,41.455 76.286,41.453 L76.286,41.451 C76.286,33.244 82.619,26.465 90.734,25.585 C91.987,27.972 93.98,30.877 95.859,31.875 L95.967,31.933 L96.088,31.959 C96.161,31.975 96.932,32.134 98.129,32.134 C99.815,32.134 102.348,31.817 104.969,30.332 C105.129,30.241 105.249,30.108 105.324,29.955 C105.554,29.608 105.507,29.138 105.189,28.845 C101.517,25.461 97.257,23.745 92.526,23.745 C82.598,23.745 74.521,31.688 74.521,41.451 C74.521,41.453 74.522,41.454 74.522,41.454 C74.458,50.395 80.954,57.306 87.237,63.99 C92.652,69.752 97.776,75.208 97.596,81.161 C95.138,82.955 92.313,85.371 89.024,88.641 C83.852,93.782 76.697,99.684 67.194,99.684 C60.56,99.684 54.247,97.293 49.322,92.948 C45.211,89.257 42.014,84.59 39.881,79.325 C41.696,80.043 44.542,81.05 48.207,81.978 C51.662,89.298 58.402,93.667 66.27,93.667 C70.761,93.667 74.723,92.294 77.142,89.898 C79.327,87.731 80.35,85.142 80.024,82.608 C79.484,78.416 76.13,75.257 72.094,74.745 C72.571,74.031 73.188,73.477 73.962,73.078 C77.111,71.452 81.682,72.893 81.725,72.907 C82.451,73.144 83.236,72.754 83.477,72.037 C83.538,71.854 83.557,71.665 83.539,71.484 C83.546,71.27 83.507,71.052 83.406,70.846 C82.481,68.977 80.832,67.725 78.923,66.275 C77,64.814 74.606,62.997 72.091,59.92 C68.062,54.99 67.05,48.16 67.039,48.085 C66.978,47.651 66.714,47.299 66.357,47.095 L63.757,45.129 L66.073,43.133 C66.078,43.129 66.081,43.123 66.086,43.119 C66.124,43.085 66.158,43.046 66.192,43.007 C66.208,42.988 66.228,42.971 66.243,42.951 C66.276,42.907 66.304,42.859 66.331,42.81 C66.34,42.793 66.353,42.777 66.362,42.759 C66.393,42.696 66.418,42.628 66.437,42.558 C66.438,42.555 66.44,42.552 66.441,42.549 C66.447,42.527 66.448,42.502 66.452,42.48 C66.463,42.428 66.474,42.376 66.478,42.324 C66.478,42.323 66.478,42.323 66.478,42.323 L66.576,40.802 C66.634,40.374 66.456,39.93 66.069,39.671 L63.259,37.787 L66.826,36.353 C66.838,36.349 66.847,36.341 66.859,36.336 C66.908,36.315 66.954,36.29 67,36.263 C67.018,36.252 67.037,36.242 67.055,36.23 C67.113,36.19 67.168,36.146 67.219,36.097 C67.224,36.092 67.228,36.086 67.232,36.081 C67.277,36.036 67.317,35.987 67.354,35.934 C67.367,35.916 67.378,35.896 67.389,35.878 C67.415,35.837 67.438,35.796 67.458,35.752 C67.47,35.728 67.479,35.703 67.489,35.677 C67.497,35.657 67.507,35.639 67.513,35.618 L68,34.098 C68.183,33.525 67.895,32.921 67.352,32.678 L64.41,29.832 L69.241,29.237 C69.324,29.255 69.408,29.271 69.492,29.271 C69.891,29.271 70.281,29.074 70.507,28.715 L71.359,27.361 C71.365,27.35 71.369,27.338 71.375,27.328 C71.397,27.289 71.416,27.25 71.433,27.21 C71.448,27.178 71.463,27.146 71.474,27.113 C71.486,27.077 71.494,27.039 71.503,27.002 C71.512,26.965 71.521,26.928 71.526,26.89 C71.531,26.853 71.531,26.817 71.532,26.78 C71.534,26.741 71.536,26.703 71.533,26.665 C71.531,26.628 71.524,26.592 71.518,26.555 C71.512,26.516 71.506,26.478 71.495,26.439 C71.486,26.406 71.474,26.374 71.462,26.342 C71.447,26.3 71.431,26.259 71.41,26.219 C71.405,26.208 71.403,26.196 71.397,26.186 L68.787,21.38 L74.207,22.894 C74.218,22.897 74.228,22.896 74.239,22.899 C74.334,22.922 74.429,22.938 74.526,22.939 C74.528,22.939 74.53,22.94 74.532,22.94 C74.601,22.94 74.669,22.933 74.736,22.921 C74.757,22.918 74.777,22.91 74.798,22.906 C74.843,22.895 74.888,22.885 74.931,22.869 C74.957,22.86 74.982,22.848 75.007,22.838 C75.045,22.821 75.082,22.804 75.118,22.784 C75.143,22.77 75.166,22.755 75.189,22.74 C75.226,22.716 75.261,22.69 75.295,22.662 C75.307,22.653 75.32,22.645 75.332,22.635 L76.53,21.566 C76.53,21.566 76.531,21.565 76.532,21.564 C76.59,21.512 76.643,21.454 76.689,21.392 C76.711,21.363 76.726,21.332 76.745,21.301 C76.766,21.267 76.79,21.233 76.808,21.196 C76.825,21.162 76.834,21.126 76.847,21.09 C76.861,21.053 76.877,21.018 76.886,20.981 C76.896,20.942 76.899,20.903 76.905,20.863 C76.91,20.827 76.919,20.791 76.921,20.754 C76.925,20.678 76.921,20.6 76.91,20.523 L76.91,20.521 L75.987,14.388 L80.913,17.698 C80.92,17.702 80.929,17.704 80.937,17.709 C81.006,17.753 81.082,17.784 81.159,17.814 C81.19,17.826 81.219,17.844 81.25,17.853 C81.357,17.884 81.468,17.901 81.58,17.902 L81.583,17.902 L81.585,17.902 C81.676,17.902 81.768,17.891 81.859,17.869 C81.89,17.862 81.919,17.848 81.949,17.838 C82.003,17.821 82.057,17.807 82.108,17.782 L83.56,17.081 C83.962,16.888 84.198,16.499 84.221,16.088 L85.194,9.948 L88.888,13.261 C88.952,13.319 89.022,13.366 89.094,13.407 C88.792,16.319 89.622,18.198 89.83,18.612 C90.36,20.137 91.813,21.107 93.374,21.107 C93.752,21.107 94.135,21.05 94.514,20.93 C96.463,20.314 97.546,18.26 96.95,16.334 C96.949,16.332 96.949,16.329 96.949,16.326 C96.899,16.141 96.855,15.958 96.816,15.774 C101.981,17.033 106.397,21.872 109.996,25.824 L110.142,25.984 L110.145,25.982 C110.155,25.993 110.162,26.006 110.173,26.017 C110.547,26.402 110.922,26.794 111.299,27.187 C114.368,30.393 117.541,33.708 121.685,34.833 C122.769,35.127 123.841,37.162 124.474,40.082 C124.376,40.077 124.276,40.067 124.188,40.052 C123.698,39.936 123,39.759 122.149,39.543 C113.079,37.246 104.176,35.256 100.476,36.24 C100.453,36.245 100.433,36.256 100.41,36.264 C100.363,36.279 100.317,36.296 100.271,36.316 C100.23,36.335 100.191,36.354 100.152,36.376 C100.114,36.397 100.077,36.42 100.041,36.446 C99.999,36.475 99.96,36.506 99.922,36.539 C99.905,36.554 99.886,36.564 99.869,36.581 C99.856,36.593 99.847,36.608 99.835,36.621 C99.8,36.658 99.768,36.696 99.737,36.736 C99.712,36.769 99.687,36.802 99.665,36.836 C99.64,36.876 99.619,36.916 99.598,36.958 C99.579,36.996 99.56,37.034 99.545,37.073 C99.528,37.116 99.516,37.161 99.504,37.205 C99.493,37.245 99.482,37.284 99.475,37.324 C99.466,37.371 99.463,37.418 99.459,37.466 C99.456,37.507 99.454,37.547 99.455,37.587 C99.456,37.633 99.461,37.679 99.466,37.725 C99.472,37.77 99.479,37.814 99.488,37.858 C99.493,37.877 99.493,37.896 99.498,37.916 C99.505,37.94 99.517,37.962 99.525,37.986 C99.54,38.029 99.556,38.072 99.575,38.114 C99.594,38.157 99.616,38.199 99.639,38.239 C99.66,38.274 99.682,38.309 99.706,38.343 C99.736,38.385 99.769,38.425 99.804,38.464 C99.819,38.48 99.829,38.499 99.845,38.515 L113.562,52.382 L108.629,52.658 C107.12,49.708 105.704,48.478 102.218,46.883 C100.804,46.238 98.352,45.539 95.98,44.863 L94.701,44.497 C91.988,43.714 89.608,40.068 89.608,36.694 C89.608,35.701 89.819,34.744 90.237,33.851 C90.296,33.725 90.327,33.596 90.345,33.466 C90.411,33.343 90.474,33.218 90.543,33.095 C90.912,32.434 90.668,31.602 89.998,31.237 C89.326,30.873 88.484,31.114 88.114,31.775 C83.532,39.973 84.898,50 91.515,56.724 C94.198,59.45 97.056,61.626 99.819,63.73 C104.705,67.45 108.97,70.706 111.161,76.033 C108.381,76.052 104.877,76.316 99.336,79.954 Z M77.303,83.795 C77.198,85.673 75.969,87.183 75.176,87.969 C73.303,89.824 69.973,90.932 66.27,90.932 C58.304,90.932 53.924,86.213 51.797,82.798 C54.413,83.331 57.331,83.786 60.496,84.075 C60.579,84.099 60.663,84.114 60.747,84.114 C60.772,84.114 60.797,84.107 60.822,84.105 C62.995,84.294 65.279,84.406 67.665,84.406 C70.725,84.406 73.954,84.217 77.303,83.795 Z M68.66,75.64 C68.651,75.666 68.65,75.692 68.644,75.719 C68.642,75.724 68.642,75.729 68.641,75.735 C68.624,75.797 68.614,75.862 68.606,75.928 C68.593,76.037 68.589,76.148 68.603,76.262 C68.7,77.011 69.394,77.542 70.153,77.447 C73.385,77.038 76.269,79.03 77.091,82.069 C71.749,82.743 66.738,82.793 62.21,82.472 C66.72,74.307 67.837,64.729 68.061,58.954 C68.608,59.87 69.228,60.775 69.932,61.637 C72.654,64.966 75.192,66.893 77.232,68.442 C77.784,68.862 78.282,69.243 78.734,69.611 C76.882,69.485 74.647,69.641 72.689,70.647 C70.713,71.662 69.358,73.342 68.66,75.64 Z M47.164,37.502 L59.889,38.342 C59.945,38.399 60.008,38.452 60.077,38.498 L60.089,38.506 L60.091,38.507 L64.158,41.234 L64.129,41.684 L61.097,44.297 C61.096,44.298 61.094,44.3 61.092,44.302 L61.091,44.303 C61.079,44.313 61.07,44.326 61.058,44.337 C61.013,44.379 60.968,44.422 60.929,44.472 L60.928,44.474 C60.879,44.537 60.837,44.604 60.803,44.674 C60.781,44.718 60.767,44.764 60.751,44.81 C60.742,44.836 60.73,44.861 60.723,44.887 C60.708,44.941 60.702,44.995 60.696,45.05 C60.693,45.071 60.687,45.09 60.686,45.111 C60.683,45.159 60.687,45.207 60.69,45.255 C60.691,45.283 60.689,45.31 60.693,45.338 C60.699,45.384 60.713,45.429 60.724,45.475 C60.731,45.502 60.734,45.531 60.744,45.559 C60.793,45.705 60.871,45.842 60.977,45.962 L60.978,45.962 C60.979,45.964 60.981,45.965 60.981,45.965 C61.033,46.023 61.088,46.075 61.15,46.122 L64.298,48.503 C64.36,48.922 64.845,51.959 66.331,55.504 C66.387,59.919 65.987,72.5 60.272,82.311 C49.716,81.297 42.085,78.39 39.432,77.257 C42.023,73.336 49.85,59.394 47.164,37.502 Z M36.821,63.356 C36.821,54.247 39.739,45.591 45.26,38.323 C45.322,38.242 45.388,38.164 45.45,38.083 C47.714,57.521 41.34,70.658 38.514,75.376 C37.41,71.567 36.821,67.522 36.821,63.356 Z M66.664,23.422 C66.818,23.376 66.953,23.301 67.076,23.212 L68.969,26.698 L68.831,26.917 L61.664,27.8 C61.649,27.802 61.636,27.808 61.621,27.81 C61.579,27.817 61.54,27.827 61.499,27.837 C61.463,27.847 61.426,27.857 61.391,27.87 C61.356,27.883 61.323,27.899 61.289,27.916 C61.251,27.934 61.215,27.952 61.18,27.974 C61.151,27.992 61.124,28.012 61.096,28.033 C61.06,28.059 61.025,28.087 60.993,28.117 C60.983,28.127 60.971,28.133 60.961,28.144 C60.946,28.158 60.936,28.175 60.923,28.191 C60.894,28.224 60.866,28.256 60.841,28.292 C60.82,28.321 60.801,28.351 60.783,28.382 C60.762,28.417 60.744,28.451 60.728,28.488 C60.712,28.522 60.699,28.556 60.687,28.59 C60.674,28.628 60.663,28.665 60.654,28.703 C60.646,28.74 60.639,28.776 60.634,28.813 C60.629,28.851 60.626,28.888 60.624,28.927 C60.623,28.967 60.624,29.008 60.627,29.048 C60.629,29.07 60.626,29.091 60.629,29.113 C60.631,29.129 60.636,29.144 60.639,29.159 C60.645,29.194 60.653,29.227 60.662,29.261 C60.672,29.301 60.684,29.34 60.698,29.377 C60.71,29.407 60.722,29.436 60.736,29.466 C60.755,29.505 60.776,29.544 60.799,29.58 C60.815,29.605 60.831,29.63 60.849,29.655 C60.878,29.694 60.909,29.73 60.942,29.765 C60.955,29.779 60.964,29.794 60.977,29.807 L65.479,34.161 L65.408,34.384 L60.298,36.437 C60.276,36.445 60.259,36.458 60.238,36.468 C60.188,36.491 60.139,36.514 60.093,36.544 C60.064,36.562 60.04,36.585 60.014,36.605 L47.365,35.771 C52.513,30.013 59.259,25.679 66.664,23.422 Z M92.081,9.331 C93.729,5.81 96.921,3.977 99.458,3.039 C96.051,6.476 93.819,11.448 95.242,16.77 C95.244,16.776 95.248,16.78 95.249,16.786 C95.252,16.796 95.253,16.806 95.256,16.816 C95.589,17.842 95.014,18.944 93.975,19.272 C92.936,19.6 91.819,19.034 91.486,18.009 L91.422,17.861 C91.35,17.726 89.667,14.491 92.081,9.331 Z M108.661,7.14 C106.983,9.063 105.008,12.221 104.561,16.729 C103.563,15.967 102.518,15.271 101.43,14.679 C102.365,12.486 104.512,8.733 108.661,7.14 Z M129.942,87.117 C129.938,87.075 129.928,87.033 129.919,86.991 C129.909,86.947 129.902,86.903 129.888,86.859 C129.873,86.811 129.851,86.765 129.83,86.718 C129.817,86.688 129.809,86.658 129.793,86.629 C129.787,86.618 129.781,86.607 129.775,86.596 C129.774,86.594 129.772,86.591 129.771,86.589 C127.601,82.55 124.376,79.863 120.98,78.211 C122.747,73.138 123.828,67.266 123.828,62.611 C123.828,55.164 121.958,47.907 118.399,41.427 C119.596,41.72 120.648,41.987 121.459,42.192 C122.352,42.419 123.079,42.602 123.582,42.721 L123.645,42.735 C123.83,42.769 124.189,42.824 124.614,42.824 C125.297,42.824 126.152,42.684 126.747,42.1 C127.257,41.598 127.458,40.901 127.313,40.135 C126.708,36.954 125.368,32.995 122.421,32.196 C119.025,31.274 116.122,28.242 113.315,25.309 C112.939,24.917 112.565,24.526 112.191,24.142 L112.059,23.997 C110.378,22.15 108.433,20.017 106.24,18.105 C106.473,10.158 111.914,6.449 112.149,6.293 C112.159,6.286 112.166,6.278 112.176,6.271 C112.202,6.252 112.228,6.231 112.252,6.209 C112.272,6.191 112.29,6.173 112.308,6.154 C112.328,6.133 112.346,6.11 112.364,6.087 C112.38,6.065 112.397,6.042 112.411,6.019 C112.426,5.994 112.439,5.97 112.451,5.943 C112.463,5.919 112.474,5.895 112.484,5.869 C112.494,5.842 112.502,5.814 112.509,5.786 C112.516,5.76 112.522,5.733 112.526,5.707 C112.531,5.679 112.533,5.651 112.535,5.622 C112.537,5.593 112.537,5.563 112.536,5.534 C112.536,5.52 112.538,5.507 112.537,5.494 C112.535,5.479 112.531,5.466 112.529,5.452 C112.525,5.422 112.519,5.392 112.511,5.362 C112.504,5.335 112.497,5.31 112.488,5.284 C112.478,5.256 112.466,5.229 112.453,5.202 C112.441,5.177 112.428,5.152 112.414,5.129 C112.406,5.115 112.401,5.101 112.392,5.087 C112.382,5.074 112.37,5.063 112.361,5.05 C112.346,5.032 112.331,5.014 112.316,4.996 C112.291,4.969 112.266,4.944 112.239,4.92 C112.225,4.908 112.21,4.896 112.195,4.884 C112.165,4.862 112.135,4.84 112.103,4.822 C112.085,4.812 112.066,4.803 112.047,4.794 C112.017,4.778 111.987,4.765 111.955,4.754 C111.93,4.745 111.906,4.738 111.88,4.731 C111.852,4.724 111.824,4.718 111.794,4.714 C111.767,4.709 111.739,4.706 111.71,4.705 C111.68,4.703 111.65,4.703 111.62,4.704 C111.607,4.705 111.593,4.703 111.58,4.704 C104.507,5.322 101.157,10.875 99.843,13.91 C98.796,13.464 97.711,13.124 96.588,12.925 C96.825,8.3 99.964,4.253 103.546,1.97 C103.559,1.961 103.57,1.95 103.582,1.941 C103.609,1.922 103.634,1.903 103.658,1.881 C103.678,1.863 103.697,1.844 103.716,1.824 C103.735,1.803 103.754,1.781 103.771,1.759 C103.788,1.736 103.804,1.713 103.819,1.689 C103.834,1.665 103.847,1.64 103.859,1.615 C103.872,1.59 103.882,1.565 103.892,1.539 C103.902,1.513 103.911,1.486 103.918,1.458 C103.925,1.431 103.931,1.404 103.935,1.376 C103.94,1.349 103.943,1.322 103.945,1.295 C103.947,1.263 103.947,1.231 103.945,1.2 C103.944,1.185 103.947,1.17 103.945,1.154 C103.944,1.144 103.941,1.135 103.939,1.125 C103.935,1.093 103.928,1.063 103.92,1.032 C103.914,1.005 103.907,0.978 103.898,0.952 C103.889,0.927 103.878,0.903 103.867,0.878 C103.853,0.849 103.839,0.819 103.822,0.792 C103.816,0.783 103.814,0.774 103.808,0.766 C103.8,0.753 103.789,0.743 103.78,0.731 C103.761,0.705 103.741,0.679 103.719,0.655 C103.7,0.635 103.682,0.617 103.662,0.599 C103.64,0.58 103.618,0.561 103.594,0.544 C103.571,0.527 103.549,0.512 103.525,0.497 C103.5,0.482 103.475,0.469 103.449,0.457 C103.424,0.445 103.399,0.434 103.372,0.425 C103.346,0.415 103.319,0.406 103.291,0.399 C103.262,0.392 103.234,0.386 103.205,0.382 C103.179,0.378 103.153,0.374 103.126,0.373 C103.092,0.37 103.057,0.371106609 103.023,0.373 C103.009,0.373 102.996,0.371106609 102.981,0.373 C102.612,0.408 93.884,1.326 90.478,8.602 C90.125,9.356 89.855,10.074 89.644,10.759 L85.17,6.747 L85.169,6.746 L85.16,6.738 C85.143,6.722 85.124,6.712 85.106,6.698 C85.064,6.665 85.022,6.631 84.975,6.603 C84.942,6.583 84.907,6.569 84.872,6.553 C84.836,6.536 84.803,6.517 84.765,6.504 C84.713,6.485 84.66,6.474 84.606,6.463 C84.585,6.458 84.564,6.45 84.542,6.446 C84.54,6.446 84.539,6.446 84.537,6.446 C84.156,6.39 83.754,6.515 83.476,6.817 C83.443,6.853 83.418,6.892 83.39,6.931 C83.374,6.953 83.356,6.972 83.342,6.996 C83.316,7.037 83.297,7.08 83.277,7.124 C83.265,7.152 83.249,7.177 83.239,7.206 C83.22,7.257 83.209,7.309 83.197,7.36 C83.192,7.383 83.183,7.404 83.18,7.427 L81.941,15.244 L81.683,15.369 L75.079,10.932 C75.061,10.92 75.042,10.913 75.023,10.902 C74.98,10.876 74.936,10.851 74.889,10.831 C74.859,10.817 74.828,10.808 74.797,10.797 C74.756,10.783 74.715,10.769 74.672,10.759 C74.635,10.751 74.598,10.747 74.56,10.742 C74.522,10.737 74.483,10.732 74.444,10.73 C74.4,10.729 74.356,10.733 74.313,10.737 C74.286,10.739 74.26,10.737 74.233,10.74 C74.225,10.742 74.218,10.745 74.211,10.746 C74.166,10.753 74.124,10.766 74.08,10.778 C74.047,10.788 74.014,10.795 73.982,10.807 C73.946,10.82 73.911,10.84 73.876,10.857 C73.842,10.874 73.807,10.889 73.774,10.909 C73.745,10.927 73.718,10.95 73.69,10.972 C73.656,10.997 73.622,11.02 73.591,11.049 C73.568,11.07 73.548,11.096 73.527,11.119 C73.495,11.153 73.464,11.187 73.436,11.226 C73.432,11.232 73.426,11.236 73.422,11.242 C73.408,11.263 73.399,11.286 73.386,11.307 C73.363,11.346 73.34,11.385 73.32,11.427 C73.306,11.46 73.295,11.493 73.283,11.527 C73.27,11.566 73.257,11.603 73.248,11.642 C73.239,11.681 73.234,11.719 73.23,11.758 C73.225,11.795 73.219,11.831 73.218,11.868 C73.217,11.912 73.221,11.955 73.225,12 C73.227,12.025 73.224,12.05 73.228,12.077 L74.457,20.244 L74.221,20.454 L66.734,18.361 C66.709,18.355 66.684,18.353 66.659,18.348 C66.611,18.338 66.562,18.327 66.512,18.323 C66.475,18.319 66.437,18.322 66.4,18.322 C66.36,18.322 66.321,18.321 66.281,18.325 C66.239,18.33 66.199,18.339 66.158,18.348 C66.123,18.356 66.088,18.361 66.054,18.372 C66.007,18.386 65.963,18.406 65.919,18.427 C65.894,18.437 65.869,18.443 65.846,18.456 C65.842,18.458 65.84,18.46 65.837,18.462 C65.79,18.487 65.747,18.519 65.703,18.55 C65.683,18.565 65.661,18.577 65.642,18.592 C65.608,18.62 65.578,18.654 65.548,18.686 C65.525,18.71 65.499,18.731 65.479,18.756 C65.464,18.775 65.452,18.798 65.438,18.818 C65.408,18.86 65.377,18.902 65.352,18.947 C65.342,18.966 65.336,18.989 65.327,19.009 C65.304,19.059 65.281,19.11 65.265,19.163 C65.264,19.166 65.262,19.169 65.261,19.173 C65.254,19.198 65.253,19.224 65.247,19.249 C65.237,19.296 65.226,19.342 65.222,19.39 C65.219,19.428 65.221,19.465 65.221,19.502 C65.222,19.541 65.22,19.58 65.224,19.619 C65.229,19.66 65.239,19.699 65.248,19.74 C65.256,19.774 65.261,19.809 65.272,19.843 C65.287,19.89 65.308,19.935 65.329,19.98 C65.339,20.003 65.345,20.026 65.358,20.049 L65.782,20.83 C56.79,23.585 48.716,29.213 43.041,36.683 C37.158,44.428 34.048,53.651 34.048,63.356 C34.048,75.491 38.68,86.724 46.792,94.367 C46.808,94.384 46.821,94.403 46.838,94.419 C46.966,94.539 47.1,94.652 47.231,94.77 C47.363,94.89 47.494,95.013 47.628,95.132 C47.645,95.147 47.664,95.157 47.682,95.171 C53.085,99.85 59.967,102.418 67.194,102.418 C77.721,102.418 85.442,96.085 90.993,90.567 C102.86,78.769 108.019,78.767 111.787,78.767 C115.249,78.767 119.746,79.958 123.367,83.005 C116.344,80.774 110.554,83.543 110.247,83.695 C110.233,83.702 110.221,83.712 110.207,83.72 C110.186,83.731 110.167,83.745 110.146,83.758 C110.09,83.792 110.034,83.826 109.984,83.867 C109.965,83.883 109.949,83.901 109.931,83.917 C109.884,83.96 109.838,84.002 109.798,84.05 C109.776,84.076 109.758,84.106 109.738,84.134 C109.708,84.177 109.676,84.218 109.651,84.263 C109.631,84.299 109.617,84.339 109.6,84.377 C109.581,84.42 109.561,84.461 109.547,84.505 C109.535,84.541 109.529,84.58 109.52,84.619 C109.508,84.669 109.496,84.719 109.49,84.771 C109.489,84.78 109.486,84.788 109.485,84.796 C109.483,84.827 109.487,84.856 109.486,84.886 C109.485,84.937 109.483,84.988 109.488,85.04 C109.492,85.086 109.502,85.129 109.51,85.174 C109.518,85.216 109.525,85.258 109.538,85.3 C109.553,85.353 109.575,85.402 109.597,85.453 C109.607,85.478 109.613,85.504 109.626,85.529 C109.63,85.537 109.635,85.542 109.639,85.549 C109.666,85.6 109.699,85.648 109.733,85.695 C109.752,85.723 109.768,85.751 109.789,85.776 C109.824,85.819 109.864,85.856 109.903,85.895 C109.928,85.918 109.951,85.944 109.977,85.966 C110.019,86.001 110.067,86.03 110.113,86.06 C110.141,86.078 110.167,86.098 110.196,86.114 C110.242,86.139 110.292,86.158 110.342,86.178 C110.376,86.192 110.408,86.208 110.443,86.219 C110.486,86.233 110.532,86.24 110.577,86.25 C110.622,86.259 110.667,86.271 110.714,86.276 C110.723,86.277 110.732,86.28 110.742,86.281 C111.511,86.349 113.386,86.764 113.95,87.555 C114.064,87.715 114.165,87.937 114.05,88.376 C113.755,88.854 111.282,89.104 109.953,89.239 C106.837,89.554 103.306,89.91 101.687,92.321 C100.774,93.678 100.653,95.459 101.324,97.613 C101.507,98.201 102.056,98.58 102.649,98.58 C102.784,98.58 102.921,98.559 103.057,98.519 C103.789,98.296 104.2,97.532 103.975,96.809 C103.559,95.475 103.566,94.474 103.998,93.832 C104.893,92.499 107.855,92.2 110.236,91.96 C113.265,91.654 116.127,91.364 116.732,89.068 C117.03,87.937 116.852,86.869 116.217,85.98 C115.968,85.631 115.659,85.334 115.32,85.077 C118.446,84.619 123.085,84.836 127.722,88.351 C127.771,88.388 127.823,88.418 127.874,88.447 C127.888,88.455 127.901,88.466 127.915,88.473 C127.99,88.513 128.067,88.544 128.145,88.568 C128.167,88.575 128.19,88.579 128.212,88.584 C128.269,88.599 128.326,88.612 128.384,88.62 C128.416,88.624 128.448,88.625 128.48,88.627 C128.509,88.629 128.537,88.634 128.566,88.634 C128.581,88.634 128.597,88.629 128.613,88.629 C128.678,88.627 128.742,88.619 128.807,88.607 C128.84,88.601 128.873,88.597 128.906,88.589 C128.968,88.573 129.029,88.55 129.09,88.526 C129.123,88.512 129.157,88.502 129.189,88.486 C129.197,88.482 129.205,88.481 129.213,88.477 C129.281,88.441 129.341,88.398 129.399,88.355 C129.413,88.345 129.428,88.339 129.44,88.328 C129.522,88.263 129.593,88.189 129.655,88.11 C129.659,88.107 129.663,88.104 129.666,88.1 C129.683,88.078 129.694,88.053 129.709,88.031 C129.742,87.983 129.774,87.937 129.801,87.886 C129.82,87.849 129.833,87.811 129.848,87.773 C129.866,87.729 129.885,87.686 129.898,87.641 C129.91,87.6 129.916,87.557 129.924,87.514 C129.933,87.47 129.942,87.426 129.946,87.381 C129.95,87.34 129.948393,87.298 129.947,87.256 C129.947,87.209 129.948393,87.164 129.942,87.117 L129.942,87.117 Z" fill="#FFF" mask="url(#b)"/><path d="M9.695,123.216 C9.695,122.417 9.439,122.449 9.183,122.833 C8.319,124.241 7.647,125.392 7.103,126.256 C6.847,126.672 6.495,126.672 6.239,126.256 C5.759,125.457 4.991,124.176 4.16,122.833 C3.903,122.449 3.68,122.417 3.68,123.216 C3.68,123.953 3.68,139.92 3.68,139.92 C3.68,140.463 3.423,140.719 2.879,140.719 L0.8,140.719 C0.256,140.719 0,140.463 0,139.92 L0,115.921 C0,115.378 0.256,115.121 0.8,115.121 L2.72,115.121 C3.392,115.121 3.552,115.313 3.903,115.857 C4.768,117.201 5.791,118.801 6.367,119.761 C6.559,120.048 6.815,120.081 7.007,119.761 C7.423,119.057 8.511,117.329 9.471,115.857 C9.791,115.345 9.983,115.121 10.655,115.121 L12.575,115.121 C13.119,115.121 13.375,115.378 13.375,115.921 L13.375,139.92 C13.375,140.463 13.119,140.719 12.575,140.719 L10.495,140.719 C9.951,140.719 9.695,140.463 9.695,139.92 C9.695,139.92 9.695,123.728 9.695,123.216" fill="#FFF" mask="url(#b)"/></g><path d="M24.127,134.864 L24.127,122.897 C24.127,122.256 24.031,122.193 23.903,122.928 C22.495,130.768 22.367,131.664 21.535,136.463 C21.439,137.103 21.823,137.04 21.919,137.04 L22.111,137.04 C23.583,137.04 24.127,136.912 24.127,134.864 Z M21.919,118.801 C20.511,118.801 19.935,118.929 19.935,120.977 L19.935,132.592 C19.935,133.392 20.063,133.295 20.191,132.592 C21.279,126.32 21.439,124.72 22.399,119.216 C22.463,118.833 22.335,118.801 22.111,118.801 L21.919,118.801 Z M25.727,115.505 C26.815,115.857 27.807,117.361 27.807,118.833 L27.807,136.559 C27.807,139.439 26.206,140.719 23.647,140.719 L21.855,140.719 C21.631,140.719 21.151,140.719 20.767,140.719 L20.607,141.359 C20.511,141.775 20.447,142 19.999,142 L18.623,142 C18.175,142 17.983,141.744 18.047,141.328 L18.239,140.303 C17.279,140.047 16.255,138.511 16.255,137.04 L16.255,119.281 C16.255,116.401 17.855,115.121 20.415,115.121 L22.207,115.121 C22.399,115.121 22.975,115.121 23.167,115.121 C23.231,114.801 23.231,114.834 23.327,114.481 C23.423,114.065 23.583,113.841 24.031,113.841 L25.471,113.841 C25.919,113.841 26.047,114.129 25.951,114.513 L25.727,115.505 L25.727,115.505 Z" fill="#FFF"/><path d="M35.327,129.232 C34.623,129.232 34.367,129.488 34.367,130.192 L34.367,136.08 C34.367,136.784 34.623,137.04 35.327,137.04 L36.447,137.04 C37.919,137.04 38.783,136.912 38.783,134.864 L38.783,131.408 C38.783,129.552 38.047,129.264 36.799,129.232 L35.327,129.232 Z M35.327,118.801 C34.623,118.801 34.367,119.057 34.367,119.761 L34.367,124.592 C34.367,125.296 34.623,125.552 35.327,125.552 L35.903,125.552 C37.375,125.552 38.239,125.424 38.239,123.377 L38.239,120.977 C38.239,118.929 37.375,118.801 35.903,118.801 L35.327,118.801 Z M30.687,116.241 C30.687,115.378 30.943,115.121 31.807,115.121 L37.759,115.121 C40.318,115.121 41.918,116.401 41.918,119.281 L41.918,124.913 C41.918,125.648 41.63,126.256 41.374,126.768 C41.278,126.961 41.247,127.088 41.438,127.312 C42.015,127.92 42.462,128.72 42.462,129.872 L42.462,136.559 C42.462,139.439 40.863,140.719 38.303,140.719 L31.807,140.719 C31.103,140.719 30.687,140.303 30.687,139.599 L30.687,116.241 L30.687,116.241 Z" fill="#FFF"/><path d="M45.023,115.921 C45.023,115.378 45.279,115.121 45.823,115.121 L47.903,115.121 C48.447,115.121 48.703,115.378 48.703,115.921 L48.703,139.92 C48.703,140.463 48.447,140.719 47.903,140.719 L45.823,140.719 C45.279,140.719 45.023,140.463 45.023,139.92 L45.023,115.921" fill="#FFF"/><path d="M51.903,115.921 C51.903,115.378 52.159,115.121 52.703,115.121 L54.783,115.121 C55.327,115.121 55.583,115.378 55.583,115.921 C55.583,127.728 55.583,125.489 55.583,136.08 C55.583,136.784 55.839,137.04 56.543,137.04 L60.095,137.04 C60.639,137.04 60.895,137.295 60.895,137.839 L60.895,139.92 C60.895,140.463 60.639,140.719 60.095,140.719 L53.023,140.719 C52.159,140.719 51.903,140.463 51.903,139.599 L51.903,115.921" fill="#FFF"/><path d="M63.135,116.241 C63.135,115.378 63.391,115.121 64.255,115.121 L71.327,115.121 C71.871,115.121 72.126,115.378 72.126,115.921 L72.126,118.001 C72.126,118.545 71.871,118.801 71.327,118.801 L67.775,118.801 C67.071,118.801 66.815,119.057 66.815,119.761 L66.815,124.592 C66.815,125.296 67.071,125.552 67.775,125.552 L70.143,125.552 C70.686,125.552 70.942,125.808 70.942,126.352 L70.942,128.432 C70.942,128.976 70.686,129.232 70.143,129.232 L67.775,129.232 C67.071,129.232 66.815,129.488 66.815,130.192 L66.815,136.08 C66.815,136.784 67.071,137.04 67.775,137.04 L71.327,137.04 C71.871,137.04 72.126,137.295 72.126,137.839 L72.126,139.92 C72.126,140.463 71.871,140.719 71.327,140.719 L64.255,140.719 C63.391,140.719 63.135,140.463 63.135,139.599 L63.135,116.241" fill="#FFF"/><path d="M89.438,115.857 C89.502,115.409 89.727,115.121 90.174,115.121 L92.67,115.121 C93.118,115.121 93.502,115.409 93.406,115.857 C93.31,116.305 89.822,139.343 89.759,139.824 C89.694,140.368 89.471,140.719 88.862,140.719 L84.703,140.719 C84.094,140.719 83.871,140.368 83.807,139.824 L80.159,115.857 C80.095,115.409 80.351,115.121 80.894,115.121 L83.391,115.121 C83.838,115.121 84.062,115.409 84.126,115.857 C85.054,122.449 85.534,126.289 86.526,132.528 C86.59,132.944 86.974,132.944 87.038,132.528 C88.286,124.432 88.446,123.056 89.438,115.857" fill="#FFF"/><path d="M95.679,115.921 C95.679,115.378 95.935,115.121 96.479,115.121 L98.559,115.121 C99.102,115.121 99.358,115.378 99.358,115.921 L99.358,139.92 C99.358,140.463 99.102,140.719 98.559,140.719 L96.479,140.719 C95.935,140.719 95.679,140.463 95.679,139.92 L95.679,115.921" fill="#FFF"/><path d="M115.102,140.08 C115.358,140.591 114.974,140.719 114.43,140.719 L112.126,140.719 C111.582,140.719 111.422,140.591 111.166,140.08 L106.719,130.128 C106.559,129.744 106.238,129.776 106.238,130.192 L106.238,139.92 C106.238,140.463 105.982,140.719 105.438,140.719 L103.358,140.719 C102.814,140.719 102.559,140.463 102.559,139.92 L102.559,115.921 C102.559,115.378 102.814,115.121 103.358,115.121 L105.438,115.121 C105.982,115.121 106.238,115.378 106.238,115.921 L106.238,124.464 C106.238,124.88 106.559,124.945 106.719,124.56 L110.687,115.761 C110.942,115.25 111.103,115.121 111.646,115.121 L113.95,115.121 C114.494,115.121 114.846,115.281 114.59,115.761 L109.694,126.864 C109.534,127.216 109.534,127.377 109.694,127.76 L115.102,140.08" fill="#FFF"/><path d="M116.958,115.921 C116.958,115.378 117.214,115.121 117.758,115.121 L119.838,115.121 C120.382,115.121 120.638,115.378 120.638,115.921 L120.638,139.92 C120.638,140.463 120.382,140.719 119.838,140.719 L117.758,140.719 C117.214,140.719 116.958,140.463 116.958,139.92 L116.958,115.921" fill="#FFF"/><path d="M126.911,115.121 C127.711,115.121 128.127,115.441 128.318,116.145 C128.703,117.521 130.975,125.361 132.446,130.416 C132.671,131.184 132.862,130.768 132.862,130.416 L132.767,115.921 C132.767,115.378 133.022,115.121 133.566,115.121 L135.646,115.121 C136.19,115.121 136.446,115.378 136.446,115.921 L136.446,139.92 C136.446,140.463 136.19,140.719 135.646,140.719 L133.471,140.719 C132.671,140.719 132.255,140.368 132.063,139.695 C131.774,138.671 129.471,130.001 127.935,124.913 C127.774,124.401 127.519,124.401 127.519,125.136 L127.519,139.92 C127.519,140.463 127.263,140.719 126.719,140.719 L124.639,140.719 C124.095,140.719 123.839,140.463 123.839,139.92 L123.839,115.921 C123.839,115.378 124.095,115.121 124.639,115.121 L126.911,115.121" fill="#FFF"/><path d="M149.725,125.552 C150.589,125.552 150.845,125.808 150.845,126.672 L150.845,136.559 C150.845,139.439 149.245,140.719 146.686,140.719 L143.485,140.719 C140.926,140.719 139.326,139.439 139.326,136.559 L139.326,119.281 C139.326,116.401 140.926,115.121 143.485,115.121 L146.686,115.121 C149.245,115.121 150.845,116.401 150.845,119.281 L150.845,121.712 C150.845,122.256 150.589,122.512 150.045,122.512 L147.965,122.512 C147.421,122.512 147.165,122.256 147.165,121.712 L147.165,120.977 C147.165,119.185 146.941,118.801 145.085,118.801 C143.678,118.801 143.006,118.929 143.006,120.977 L143.006,134.864 C143.006,136.912 143.678,137.04 145.085,137.04 C146.365,137.04 147.165,137.04 147.165,134.864 L147.165,130.192 C147.165,129.488 146.909,129.232 146.205,129.232 L145.438,129.232 C144.894,129.232 144.638,128.976 144.638,128.432 L144.638,126.352 C144.638,125.808 144.894,125.552 145.438,125.552 L149.725,125.552" fill="#FFF"/><path d="M158.974,129.264 L157.245,129.264 C154.686,129.264 153.086,127.953 153.086,125.073 L153.086,119.281 C153.086,116.401 154.686,115.121 157.245,115.121 L160.478,115.121 C163.037,115.121 164.637,116.401 164.637,119.281 L164.637,121.712 C164.637,122.256 164.381,122.512 163.837,122.512 L161.757,122.512 C161.213,122.512 160.957,122.256 160.957,121.712 L160.957,120.977 C160.957,119.153 160.253,118.801 158.878,118.801 C157.502,118.801 156.766,119.153 156.766,120.977 L156.766,123.377 C156.766,125.424 157.661,125.52 159.069,125.52 L160.478,125.52 C163.037,125.52 164.637,126.8 164.637,129.68 L164.637,136.559 C164.637,139.439 163.037,140.719 160.478,140.719 L157.245,140.719 C154.686,140.719 153.086,139.439 153.086,136.559 L153.086,134.128 C153.086,133.584 153.31,133.328 153.886,133.328 L155.966,133.328 C156.51,133.328 156.766,133.584 156.766,134.128 L156.766,134.864 C156.766,136.688 157.502,137.04 158.878,137.04 C160.253,137.04 160.957,136.688 160.957,134.864 L160.957,131.44 C160.957,129.392 160.382,129.264 158.974,129.264" fill="#FFF"/></g></g></g></svg>
