<svg width="646" height="161" viewBox="0 0 646 161" fill="none"
  xmlns="http://www.w3.org/2000/svg">
  <g clip-path="url(#clip0_1_2)">
    <path d="M641.77 74.0936C640.947 74.091 640.143 73.8448 639.46 73.3862C638.777 72.9275 638.246 72.277 637.932 71.5168C637.619 70.7565 637.539 69.9207 637.701 69.1147C637.863 68.3088 638.261 67.5689 638.844 66.9885C639.426 66.4082 640.168 66.0134 640.976 65.854C641.783 65.6946 642.62 65.7777 643.38 66.0929C644.14 66.4081 644.789 66.9412 645.246 67.6249C645.703 68.3086 645.947 69.1122 645.947 69.9343C645.947 71.0374 645.509 72.0953 644.728 72.8754C643.947 73.6554 642.888 74.0936 641.783 74.0936V74.0936" fill="#A1C517"/>
    <path d="M509.899 74.0936C509.075 74.0936 508.27 73.8497 507.585 73.3926C506.9 72.9356 506.367 72.286 506.052 71.526C505.736 70.766 505.654 69.9297 505.815 69.1229C505.975 68.3161 506.372 67.5749 506.954 66.9932C507.537 66.4116 508.279 66.0154 509.086 65.8549C509.894 65.6944 510.731 65.7768 511.492 66.0916C512.253 66.4064 512.903 66.9395 513.361 67.6235C513.818 68.3075 514.063 69.1117 514.063 69.9343C514.063 71.0374 513.624 72.0954 512.843 72.8754C512.062 73.6554 511.003 74.0936 509.899 74.0936Z" fill="#A1C517"/>
    <path d="M625.741 74.6556C624.802 74.6556 623.883 74.3773 623.102 73.8558C622.32 73.3343 621.711 72.5931 621.352 71.7259C620.992 70.8587 620.898 69.9045 621.082 68.9839C621.265 68.0632 621.717 67.2176 622.382 66.5539C623.046 65.8902 623.893 65.4382 624.814 65.255C625.736 65.0719 626.691 65.1659 627.56 65.5251C628.428 65.8843 629.17 66.4926 629.692 67.2731C630.214 68.0535 630.493 68.9711 630.493 69.9097V69.9097C630.493 71.1684 629.992 72.3756 629.101 73.2656C628.21 74.1556 627.001 74.6556 625.741 74.6556" fill="#A1C517"/>
    <path d="M525.954 74.6556C525.014 74.6556 524.096 74.3773 523.314 73.8558C522.533 73.3343 521.924 72.5931 521.564 71.7259C521.205 70.8587 521.111 69.9045 521.294 68.9839C521.477 68.0632 521.93 67.2176 522.594 66.5539C523.259 65.8902 524.105 65.4382 525.027 65.255C525.949 65.0719 526.904 65.1659 527.772 65.5251C528.64 65.8843 529.382 66.4926 529.904 67.2731C530.426 68.0535 530.705 68.9711 530.705 69.9097V69.9097C530.705 71.1684 530.205 72.3756 529.313 73.2656C528.422 74.1556 527.214 74.6556 525.954 74.6556" fill="#A1C517"/>
    <path d="M609.099 75.8668C607.925 75.8668 606.776 75.5188 605.8 74.867C604.823 74.2151 604.062 73.2886 603.612 72.2046C603.163 71.1206 603.045 69.9278 603.274 68.7771C603.503 67.6263 604.069 66.5693 604.9 65.7396C605.73 64.9099 606.789 64.3449 607.941 64.116C609.093 63.8871 610.287 64.0046 611.372 64.4536C612.457 64.9026 613.385 65.663 614.037 66.6386C614.69 67.6141 615.038 68.7611 615.038 69.9344C615.038 71.5078 614.412 73.0167 613.299 74.1292C612.185 75.2418 610.674 75.8668 609.099 75.8668Z" fill="#A1C517"/>
    <path d="M542.57 75.8667C541.396 75.8641 540.249 75.5139 539.274 74.8605C538.299 74.207 537.54 73.2796 537.092 72.1954C536.645 71.1112 536.529 69.9188 536.76 68.7689C536.99 67.619 537.557 66.5632 538.388 65.7349C539.219 64.9066 540.278 64.3429 541.429 64.1151C542.581 63.8872 543.774 64.0055 544.859 64.4549C545.943 64.9043 546.87 65.6647 547.522 66.6399C548.174 67.6152 548.522 68.7616 548.522 69.9344C548.522 70.7134 548.368 71.4848 548.07 72.2046C547.771 72.9243 547.334 73.5783 546.782 74.1292C546.231 74.6801 545.576 75.117 544.856 75.4152C544.135 75.7133 543.363 75.8667 542.583 75.8667" fill="#A1C517"/>
    <path d="M641.77 57.4694C640.946 57.4667 640.142 57.2202 639.459 56.761C638.776 56.3018 638.244 55.6505 637.931 54.8894C637.618 54.1284 637.539 53.2919 637.702 52.4856C637.865 51.6792 638.264 50.9394 638.848 50.3596C639.433 49.7798 640.176 49.386 640.984 49.2281C641.792 49.0702 642.629 49.1552 643.389 49.4725C644.149 49.7897 644.798 50.3249 645.253 51.0104C645.708 51.6958 645.95 52.5008 645.947 53.3234C645.947 54.4265 645.509 55.4844 644.728 56.2645C643.947 57.0445 642.888 57.4827 641.783 57.4827V57.4827" fill="#A1C517"/>
    <path d="M509.899 57.4694C509.074 57.4694 508.269 57.2251 507.584 56.7675C506.899 56.3099 506.365 55.6595 506.05 54.8987C505.736 54.1379 505.654 53.3009 505.816 52.4937C505.977 51.6865 506.375 50.9454 506.959 50.3643C507.543 49.7831 508.286 49.388 509.094 49.2291C509.903 49.0701 510.741 49.1544 511.501 49.4712C512.262 49.7881 512.911 50.3233 513.367 51.009C513.823 51.6947 514.065 52.5002 514.062 53.3234C514.062 54.4265 513.624 55.4845 512.843 56.2645C512.062 57.0445 511.003 57.4827 509.899 57.4827V57.4827" fill="#A1C517"/>
    <path d="M625.741 58.0825C624.802 58.0825 623.884 57.8045 623.103 57.2836C622.322 56.7627 621.713 56.0223 621.353 55.1558C620.993 54.2894 620.898 53.3359 621.081 52.4156C621.263 51.4954 621.714 50.6497 622.377 49.9855C623.04 49.3212 623.886 48.8682 624.806 48.6835C625.727 48.4989 626.682 48.591 627.55 48.9482C628.419 49.3053 629.162 49.9115 629.685 50.6902C630.209 51.4689 630.49 52.3852 630.493 53.3233V53.3233C630.493 54.582 629.992 55.7891 629.101 56.6791C628.21 57.5691 627.001 58.0692 625.741 58.0692" fill="#A1C517"/>
    <path d="M525.954 58.0825C525.015 58.0825 524.097 57.8045 523.316 57.2836C522.535 56.7627 521.926 56.0223 521.566 55.1558C521.206 54.2894 521.111 53.3359 521.293 52.4156C521.475 51.4954 521.927 50.6497 522.59 49.9855C523.253 49.3212 524.098 48.8682 525.019 48.6835C525.94 48.4989 526.894 48.591 527.763 48.9482C528.631 49.3053 529.374 49.9115 529.898 50.6902C530.422 51.4689 530.702 52.3852 530.705 53.3233V53.3233C530.705 54.582 530.205 55.7891 529.313 56.6791C528.422 57.5691 527.214 58.0692 525.954 58.0692" fill="#A1C517"/>
    <path d="M609.099 59.2577C607.925 59.2577 606.776 58.9098 605.8 58.2579C604.823 57.6061 604.062 56.6796 603.612 55.5956C603.163 54.5116 603.045 53.3188 603.274 52.168C603.503 51.0173 604.069 49.9602 604.9 49.1306C605.73 48.3009 606.789 47.7359 607.941 47.507C609.093 47.2781 610.287 47.3956 611.372 47.8446C612.457 48.2936 613.385 49.054 614.037 50.0295C614.69 51.0051 615.038 52.1521 615.038 53.3254V53.3254C615.038 54.8987 614.412 56.4076 613.299 57.5202C612.185 58.6327 610.674 59.2577 609.099 59.2577" fill="#A1C517"/>
    <path d="M542.57 59.2577C541.396 59.2551 540.249 58.9049 539.274 58.2514C538.299 57.598 537.54 56.6706 537.092 55.5863C536.645 54.5021 536.529 53.3097 536.76 52.1599C536.99 51.01 537.557 49.9542 538.388 49.1259C539.219 48.2975 540.278 47.7339 541.429 47.506C542.581 47.2782 543.774 47.3965 544.859 47.8459C545.943 48.2953 546.87 49.0556 547.522 50.0309C548.174 51.0062 548.522 52.1526 548.522 53.3253V53.3253C548.522 54.8987 547.896 56.4076 546.782 57.5201C545.669 58.6327 544.158 59.2577 542.583 59.2577" fill="#A1C517"/>
    <path d="M641.769 90.6506C640.943 90.6478 640.137 90.3999 639.453 89.9382C638.768 89.4766 638.237 88.8221 637.926 88.058C637.615 87.2938 637.538 86.4546 637.706 85.6469C637.874 84.8392 638.278 84.0995 638.867 83.5219C639.457 82.9443 640.205 82.5548 641.017 82.403C641.829 82.2512 642.667 82.3439 643.426 82.6694C644.185 82.9948 644.83 83.5383 645.278 84.2307C645.727 84.9231 645.96 85.7332 645.947 86.5579C645.929 87.6518 645.481 88.6947 644.699 89.4607C643.917 90.2267 642.864 90.6542 641.769 90.6506V90.6506Z" fill="#A1C517"/>
    <path d="M509.899 90.6506C509.075 90.6506 508.27 90.4067 507.585 89.9496C506.9 89.4926 506.367 88.843 506.052 88.083C505.736 87.323 505.654 86.4867 505.815 85.6798C505.975 84.873 506.372 84.1319 506.954 83.5502C507.537 82.9685 508.279 82.5724 509.086 82.4119C509.894 82.2514 510.731 82.3338 511.492 82.6486C512.253 82.9634 512.903 83.4965 513.361 84.1805C513.818 84.8645 514.063 85.6687 514.063 86.4913C514.063 87.5944 513.624 88.6524 512.843 89.4324C512.062 90.2124 511.003 90.6506 509.899 90.6506V90.6506Z" fill="#A1C517"/>
    <path d="M625.741 91.3035C624.802 91.3035 623.883 91.0252 623.102 90.5037C622.32 89.9822 621.711 89.241 621.352 88.3738C620.992 87.5066 620.898 86.5524 621.082 85.6318C621.265 84.7112 621.717 83.8655 622.382 83.2018C623.046 82.5381 623.893 82.0861 624.814 81.903C625.736 81.7198 626.691 81.8138 627.56 82.173C628.428 82.5322 629.17 83.1405 629.692 83.921C630.214 84.7014 630.493 85.619 630.493 86.5577V86.5577C630.493 87.8163 629.992 89.0235 629.101 89.9135C628.21 90.8035 627.001 91.3035 625.741 91.3035" fill="#A1C517"/>
    <path d="M525.954 91.3035C525.014 91.3035 524.096 91.0252 523.314 90.5037C522.533 89.9822 521.924 89.241 521.564 88.3738C521.205 87.5066 521.111 86.5524 521.294 85.6318C521.477 84.7112 521.93 83.8655 522.594 83.2018C523.259 82.5381 524.105 82.0861 525.027 81.903C525.949 81.7198 526.904 81.8138 527.772 82.173C528.64 82.5322 529.382 83.1405 529.904 83.921C530.426 84.7014 530.705 85.619 530.705 86.5577V86.5577C530.705 87.8163 530.205 89.0235 529.313 89.9135C528.422 90.8035 527.214 91.3035 525.954 91.3035" fill="#A1C517"/>
    <path d="M609.099 92.492C607.925 92.492 606.776 92.1441 605.8 91.4923C604.823 90.8404 604.062 89.9139 603.612 88.8299C603.163 87.7459 603.045 86.5531 603.274 85.4023C603.503 84.2516 604.069 83.1945 604.9 82.3649C605.73 81.5352 606.789 80.9702 607.941 80.7413C609.093 80.5124 610.287 80.6299 611.372 81.0789C612.457 81.5279 613.385 82.2883 614.037 83.2638C614.69 84.2394 615.038 85.3864 615.038 86.5597C615.038 88.133 614.412 89.642 613.299 90.7545C612.185 91.867 610.674 92.492 609.099 92.492Z" fill="#A1C517"/>
    <path d="M542.57 92.492C541.396 92.4894 540.249 92.1392 539.274 91.4857C538.299 90.8323 537.54 89.9049 537.092 88.8206C536.645 87.7364 536.529 86.544 536.76 85.3942C536.99 84.2443 537.557 83.1885 538.388 82.3602C539.219 81.5318 540.278 80.9682 541.429 80.7403C542.581 80.5125 543.774 80.6308 544.859 81.0802C545.943 81.5296 546.87 82.2899 547.522 83.2652C548.174 84.2405 548.522 85.3869 548.522 86.5597V86.5597C548.522 88.133 547.896 89.6419 546.782 90.7545C545.669 91.867 544.158 92.492 542.583 92.492" fill="#A1C517"/>
    <path d="M571.691 135.804C571.691 134.982 571.935 134.177 572.393 133.493C572.851 132.809 573.501 132.276 574.262 131.961C575.023 131.647 575.86 131.564 576.668 131.725C577.475 131.885 578.217 132.281 578.8 132.863C579.382 133.445 579.778 134.186 579.939 134.993C580.1 135.8 580.017 136.636 579.702 137.396C579.387 138.156 578.853 138.805 578.169 139.262C577.484 139.72 576.679 139.963 575.855 139.963C574.751 139.963 573.692 139.525 572.911 138.745C572.13 137.965 571.691 136.907 571.691 135.804V135.804Z" fill="#A1C517"/>
    <path d="M571.691 4.15931C571.691 3.33667 571.935 2.53251 572.393 1.84852C572.851 1.16452 573.501 0.631411 574.262 0.316603C575.023 0.00179452 575.86 -0.0805737 576.668 0.0799142C577.475 0.240402 578.217 0.636538 578.8 1.21823C579.382 1.79992 579.778 2.54104 579.939 3.34786C580.1 4.15469 580.017 4.99099 579.702 5.75101C579.387 6.51102 578.853 7.16062 578.169 7.61765C577.484 8.07468 576.679 8.31862 575.855 8.31862C574.751 8.31862 573.692 7.88041 572.911 7.10038C572.13 6.32036 571.691 5.26242 571.691 4.15931V4.15931Z" fill="#A1C517"/>
    <path d="M571.09 119.765C571.09 118.827 571.369 117.909 571.891 117.129C572.413 116.348 573.155 115.74 574.023 115.381C574.892 115.022 575.847 114.928 576.768 115.111C577.69 115.294 578.537 115.746 579.201 116.41C579.866 117.073 580.318 117.919 580.501 118.84C580.685 119.76 580.591 120.714 580.231 121.582C579.871 122.449 579.263 123.19 578.481 123.711C577.7 124.233 576.781 124.511 575.842 124.511V124.511C574.581 124.511 573.373 124.011 572.482 123.121C571.591 122.231 571.09 121.024 571.09 119.765" fill="#A1C517"/>
    <path d="M571.09 20.089C571.09 19.1503 571.369 18.2328 571.891 17.4523C572.413 16.6719 573.155 16.0636 574.023 15.7044C574.892 15.3451 575.847 15.2512 576.768 15.4343C577.69 15.6174 578.537 16.0694 579.201 16.7331C579.866 17.3969 580.318 18.2425 580.501 19.1631C580.685 20.0837 580.591 21.038 580.231 21.9052C579.871 22.7723 579.263 23.5136 578.481 24.035C577.7 24.5565 576.781 24.8349 575.842 24.8349V24.8349C574.581 24.8349 573.373 24.3349 572.482 23.4448C571.591 22.5548 571.09 21.3477 571.09 20.089" fill="#A1C517"/>
    <path d="M569.874 103.169C569.874 101.995 570.223 100.849 570.875 99.8729C571.528 98.8974 572.455 98.137 573.54 97.688C574.626 97.239 575.82 97.1215 576.972 97.3504C578.124 97.5793 579.182 98.1443 580.013 98.974C580.843 99.8036 581.409 100.861 581.638 102.011C581.867 103.162 581.75 104.355 581.3 105.439C580.851 106.523 580.089 107.449 579.113 108.101C578.136 108.753 576.988 109.101 575.813 109.101V109.101C574.238 109.101 572.727 108.476 571.614 107.364C570.5 106.251 569.874 104.742 569.874 103.169Z" fill="#A1C517"/>
    <path d="M569.874 36.7132C569.877 35.5416 570.227 34.3971 570.88 33.4238C571.533 32.4506 572.46 31.6923 573.544 31.2446C574.627 30.7968 575.82 30.6797 576.97 30.908C578.121 31.1362 579.178 31.6996 580.008 32.5271C580.838 33.3547 581.405 34.4092 581.636 35.5579C581.867 36.7065 581.752 37.8978 581.306 38.9814C580.861 40.0651 580.104 40.9927 579.131 41.6471C578.158 42.3016 577.013 42.6537 575.84 42.6589V42.6589C575.057 42.6624 574.28 42.5112 573.556 42.2138C572.831 41.9164 572.173 41.4788 571.618 40.9261C571.064 40.3735 570.624 39.7168 570.325 38.9937C570.026 38.2707 569.872 37.4957 569.874 36.7132Z" fill="#A1C517"/>
    <path d="M555.049 135.803C555.052 134.98 555.299 134.177 555.758 133.494C556.218 132.812 556.87 132.281 557.632 131.969C558.394 131.656 559.231 131.576 560.039 131.74C560.846 131.903 561.586 132.301 562.167 132.885C562.747 133.468 563.142 134.211 563.3 135.018C563.458 135.825 563.373 136.661 563.055 137.42C562.737 138.179 562.202 138.827 561.515 139.282C560.829 139.737 560.023 139.978 559.2 139.976C558.095 139.976 557.036 139.537 556.255 138.757C555.475 137.977 555.036 136.919 555.036 135.816V135.816" fill="#A1C517"/>
    <path d="M555.049 4.1593C555.047 3.33554 555.289 2.52954 555.745 1.84351C556.202 1.15748 556.852 0.622301 557.613 0.305841C558.375 -0.0106182 559.213 -0.0941095 560.022 0.0659531C560.831 0.226016 561.574 0.622423 562.157 1.20492C562.741 1.78741 563.137 2.52975 563.298 3.33781C563.458 4.14588 563.374 4.98328 563.057 5.74384C562.741 6.5044 562.205 7.15385 561.518 7.60987C560.831 8.06589 560.024 8.30792 559.2 8.30528C558.095 8.30528 557.036 7.86707 556.255 7.08705C555.475 6.30703 555.036 5.24909 555.036 4.14597V4.14597" fill="#A1C517"/>
    <path d="M554.461 119.765C554.461 118.826 554.74 117.908 555.263 117.127C555.785 116.347 556.528 115.738 557.397 115.38C558.266 115.021 559.222 114.928 560.144 115.112C561.066 115.296 561.913 115.749 562.577 116.414C563.24 117.079 563.692 117.926 563.874 118.848C564.056 119.769 563.96 120.724 563.598 121.591C563.236 122.458 562.625 123.198 561.842 123.718C561.059 124.238 560.139 124.514 559.199 124.511V124.511C557.939 124.511 556.73 124.011 555.839 123.121C554.948 122.231 554.448 121.024 554.448 119.765" fill="#A1C517"/>
    <path d="M554.461 20.089C554.461 19.1497 554.74 18.2317 555.263 17.4509C555.785 16.6702 556.528 16.0619 557.397 15.7031C558.266 15.3443 559.222 15.2511 560.144 15.4353C561.066 15.6195 561.913 16.0728 562.577 16.7379C563.24 17.4029 563.692 18.2498 563.874 19.1713C564.056 20.0928 563.96 21.0474 563.598 21.9144C563.236 22.7814 562.625 23.5216 561.842 24.0415C561.059 24.5614 560.139 24.8375 559.199 24.8348V24.8348C557.939 24.8348 556.73 24.3348 555.839 23.4448C554.948 22.5548 554.448 21.3476 554.448 20.089" fill="#A1C517"/>
    <path d="M553.273 103.169C553.271 101.994 553.617 100.846 554.269 99.8679C554.92 98.8903 555.848 98.1279 556.933 97.6772C558.019 97.2266 559.214 97.108 560.368 97.3365C561.521 97.5649 562.58 98.1302 563.412 98.9607C564.243 99.7911 564.809 100.849 565.038 102.001C565.266 103.153 565.148 104.347 564.697 105.432C564.245 106.516 563.482 107.443 562.503 108.094C561.525 108.744 560.375 109.09 559.199 109.088V109.088C557.624 109.088 556.113 108.463 554.999 107.35C553.886 106.238 553.26 104.729 553.26 103.155" fill="#A1C517"/>
    <path d="M553.273 36.7133C553.276 35.54 553.627 34.3938 554.282 33.4197C554.936 32.4456 555.866 31.6873 556.952 31.2408C558.038 30.7942 559.232 30.6794 560.384 30.9109C561.536 31.1424 562.592 31.7098 563.421 32.5413C564.25 33.3728 564.813 34.4311 565.04 35.5824C565.266 36.7336 565.146 37.9262 564.694 39.0092C564.242 40.0921 563.479 41.0169 562.501 41.6666C561.523 42.3163 560.374 42.6616 559.199 42.659V42.659C557.624 42.659 556.113 42.034 554.999 40.9214C553.886 39.8089 553.26 38.3 553.26 36.7266" fill="#A1C517"/>
    <path d="M588.32 135.804C588.32 134.982 588.564 134.177 589.021 133.493C589.479 132.809 590.129 132.276 590.89 131.961C591.651 131.647 592.488 131.564 593.296 131.725C594.104 131.885 594.846 132.281 595.428 132.863C596.01 133.445 596.407 134.186 596.568 134.993C596.728 135.8 596.646 136.636 596.331 137.396C596.016 138.156 595.482 138.805 594.797 139.262C594.112 139.72 593.307 139.963 592.484 139.963C591.379 139.963 590.32 139.525 589.539 138.745C588.758 137.965 588.32 136.907 588.32 135.804Z" fill="#A1C517"/>
    <path d="M588.32 4.15931C588.32 3.33667 588.564 2.53251 589.021 1.84852C589.479 1.16452 590.129 0.631411 590.89 0.316603C591.651 0.00179452 592.488 -0.0805737 593.296 0.0799142C594.104 0.240402 594.846 0.636538 595.428 1.21823C596.01 1.79992 596.407 2.54104 596.568 3.34786C596.728 4.15469 596.646 4.99099 596.331 5.75101C596.016 6.51102 595.482 7.16062 594.797 7.61765C594.112 8.07468 593.307 8.31862 592.484 8.31862C591.379 8.31862 590.32 7.88041 589.539 7.10038C588.758 6.32036 588.32 5.26242 588.32 4.15931V4.15931Z" fill="#A1C517"/>
    <path d="M587.719 119.765C587.719 118.827 587.998 117.909 588.52 117.129C589.042 116.348 589.784 115.74 590.652 115.381C591.52 115.022 592.475 114.928 593.397 115.111C594.319 115.294 595.165 115.746 595.83 116.41C596.494 117.073 596.947 117.919 597.13 118.84C597.313 119.76 597.219 120.714 596.86 121.582C596.5 122.449 595.891 123.19 595.11 123.711C594.328 124.233 593.41 124.511 592.47 124.511V124.511C591.21 124.511 590.002 124.011 589.111 123.121C588.22 122.231 587.719 121.024 587.719 119.765" fill="#A1C517"/>
    <path d="M587.719 20.089C587.719 19.1503 587.998 18.2328 588.52 17.4523C589.042 16.6719 589.784 16.0636 590.652 15.7044C591.52 15.3451 592.475 15.2512 593.397 15.4343C594.319 15.6174 595.165 16.0694 595.83 16.7331C596.494 17.3969 596.947 18.2425 597.13 19.1631C597.313 20.0837 597.219 21.038 596.86 21.9052C596.5 22.7723 595.891 23.5136 595.11 24.035C594.328 24.5565 593.41 24.8349 592.47 24.8349V24.8349C591.21 24.8349 590.002 24.3349 589.111 23.4448C588.22 22.5548 587.719 21.3477 587.719 20.089" fill="#A1C517"/>
    <path d="M586.544 103.169C586.544 101.995 586.893 100.849 587.545 99.8729C588.198 98.8974 589.125 98.137 590.211 97.688C591.296 97.239 592.49 97.1215 593.642 97.3504C594.794 97.5793 595.852 98.1443 596.683 98.974C597.513 99.8036 598.079 100.861 598.308 102.011C598.537 103.162 598.42 104.355 597.97 105.439C597.521 106.523 596.759 107.449 595.783 108.101C594.806 108.753 593.658 109.101 592.483 109.101C590.908 109.101 589.398 108.476 588.284 107.364C587.17 106.251 586.544 104.742 586.544 103.169Z" fill="#A1C517"/>
    <path d="M586.545 36.7133C586.548 35.54 586.899 34.3938 587.553 33.4197C588.208 32.4456 589.137 31.6873 590.224 31.2408C591.31 30.7942 592.504 30.6794 593.656 30.9109C594.807 31.1424 595.864 31.7098 596.693 32.5413C597.522 33.3728 598.085 34.4311 598.311 35.5824C598.538 36.7336 598.418 37.9262 597.966 39.0092C597.514 40.0921 596.751 41.0169 595.772 41.6666C594.794 42.3163 593.645 42.6616 592.471 42.659C590.896 42.659 589.385 42.034 588.271 40.9214C587.157 39.8089 586.532 38.3 586.532 36.7266" fill="#A1C517"/>
    <path d="M592.47 77.0658C591.058 77.0658 589.678 76.6475 588.504 75.8638C587.329 75.0801 586.414 73.9662 585.874 72.663C585.333 71.3598 585.192 69.9257 585.467 68.5422C585.743 67.1587 586.423 65.8879 587.422 64.8905C588.42 63.893 589.692 63.2137 591.077 62.9385C592.462 62.6634 593.898 62.8046 595.203 63.3444C596.507 63.8842 597.623 64.7984 598.407 65.9712C599.192 67.1441 599.61 68.5231 599.61 69.9337V69.9337C599.61 71.8252 598.858 73.6393 597.519 74.9769C596.18 76.3144 594.364 77.0658 592.47 77.0658" fill="#A1C517"/>
    <path d="M575.841 77.0658C574.429 77.0658 573.049 76.6475 571.875 75.8638C570.7 75.0801 569.785 73.9662 569.245 72.663C568.704 71.3598 568.563 69.9257 568.838 68.5422C569.114 67.1587 569.794 65.8879 570.793 64.8905C571.791 63.893 573.063 63.2137 574.448 62.9385C575.833 62.6634 577.269 62.8046 578.574 63.3444C579.878 63.8842 580.993 64.7984 581.778 65.9712C582.563 67.1441 582.981 68.5231 582.981 69.9337V69.9337C582.981 71.8252 582.229 73.6393 580.89 74.9769C579.551 76.3144 577.735 77.0658 575.841 77.0658" fill="#A1C517"/>
    <path d="M559.198 77.0658C557.786 77.0658 556.406 76.6475 555.232 75.8638C554.058 75.0801 553.142 73.9662 552.602 72.663C552.062 71.3598 551.92 69.9257 552.196 68.5422C552.471 67.1587 553.151 65.8879 554.15 64.8905C555.148 63.893 556.42 63.2137 557.806 62.9385C559.191 62.6634 560.626 62.8046 561.931 63.3444C563.236 63.8842 564.351 64.7984 565.135 65.9712C565.92 67.1441 566.339 68.5231 566.339 69.9337V69.9337C566.339 71.8252 565.586 73.6393 564.247 74.9769C562.908 76.3144 561.092 77.0658 559.198 77.0658" fill="#A1C517"/>
    <path d="M568.715 86.5456C568.715 85.135 569.134 83.7561 569.919 82.5832C570.703 81.4103 571.818 80.4962 573.123 79.9564C574.428 79.4166 575.864 79.2753 577.249 79.5505C578.634 79.8257 579.906 80.505 580.904 81.5024C581.903 82.4999 582.583 83.7707 582.859 85.1542C583.134 86.5377 582.993 87.9717 582.452 89.275C581.912 90.5782 580.997 91.6921 579.822 92.4758C578.648 93.2595 577.268 93.6778 575.856 93.6778V93.6778C573.962 93.6778 572.146 92.9263 570.807 91.5888C569.468 90.2513 568.715 88.4372 568.715 86.5456" fill="#A1C517"/>
    <path d="M568.715 53.3245C568.715 51.9139 569.134 50.535 569.919 49.3621C570.703 48.1892 571.818 47.2751 573.123 46.7353C574.428 46.1955 575.864 46.0542 577.249 46.3294C578.634 46.6046 579.906 47.2839 580.904 48.2813C581.903 49.2788 582.583 50.5496 582.859 51.9331C583.134 53.3166 582.993 54.7507 582.452 56.0539C581.912 57.3571 580.997 58.471 579.822 59.2547C578.648 60.0384 577.268 60.4567 575.856 60.4567V60.4567C573.962 60.4567 572.146 59.7053 570.807 58.3677C569.468 57.0302 568.715 55.2161 568.715 53.3245" fill="#A1C517"/>
    <path d="M552.138 86.5456C552.138 85.135 552.557 83.7561 553.342 82.5832C554.126 81.4103 555.241 80.4962 556.546 79.9564C557.851 79.4166 559.286 79.2753 560.671 79.5505C562.056 79.8257 563.329 80.505 564.327 81.5024C565.326 82.4999 566.006 83.7707 566.281 85.1542C566.557 86.5377 566.415 87.9717 565.875 89.275C565.334 90.5782 564.419 91.6921 563.245 92.4758C562.071 93.2595 560.691 93.6778 559.278 93.6778V93.6778C557.385 93.6778 555.569 92.9263 554.23 91.5888C552.891 90.2513 552.138 88.4372 552.138 86.5456" fill="#A1C517"/>
    <path d="M552.138 53.3245C552.138 51.9139 552.557 50.535 553.342 49.3621C554.126 48.1892 555.241 47.2751 556.546 46.7353C557.851 46.1955 559.286 46.0542 560.671 46.3294C562.056 46.6046 563.329 47.2839 564.327 48.2813C565.326 49.2788 566.006 50.5496 566.281 51.9331C566.557 53.3166 566.415 54.7507 565.875 56.0539C565.334 57.3571 564.419 58.471 563.245 59.2547C562.071 60.0384 560.691 60.4567 559.278 60.4567V60.4567C557.385 60.4567 555.569 59.7053 554.23 58.3677C552.891 57.0302 552.138 55.2161 552.138 53.3245" fill="#A1C517"/>
    <path d="M585.342 86.5456C585.342 85.135 585.761 83.7561 586.546 82.5832C587.33 81.4103 588.445 80.4962 589.75 79.9564C591.055 79.4166 592.49 79.2753 593.875 79.5505C595.26 79.8257 596.533 80.505 597.531 81.5024C598.53 82.4999 599.21 83.7707 599.485 85.1542C599.761 86.5377 599.619 87.9717 599.079 89.275C598.539 90.5782 597.623 91.6921 596.449 92.4758C595.275 93.2595 593.895 93.6778 592.482 93.6778V93.6778C591.545 93.6778 590.616 93.4933 589.75 93.1349C588.884 92.7764 588.097 92.2511 587.434 91.5888C586.771 90.9265 586.245 90.1403 585.886 89.275C585.527 88.4097 585.342 87.4822 585.342 86.5456" fill="#A1C517"/>
    <path d="M585.342 53.3245C585.342 51.9139 585.761 50.535 586.546 49.3621C587.33 48.1892 588.445 47.2751 589.75 46.7353C591.055 46.1955 592.49 46.0542 593.875 46.3294C595.26 46.6046 596.533 47.2839 597.531 48.2813C598.53 49.2788 599.21 50.5496 599.485 51.9331C599.761 53.3166 599.619 54.7507 599.079 56.0539C598.539 57.3571 597.623 58.471 596.449 59.2547C595.275 60.0384 593.895 60.4567 592.482 60.4567V60.4567C591.545 60.4567 590.616 60.2722 589.75 59.9138C588.884 59.5554 588.097 59.03 587.434 58.3677C586.771 57.7054 586.245 56.9192 585.886 56.0539C585.527 55.1886 585.342 54.2611 585.342 53.3245" fill="#A1C517"/>
    <path d="M53.0371 141.11L50.1277 102.196C49.8608 98.1967 49.6739 93.4774 49.6739 91.5311C49.2202 93.6107 48.3393 97.3301 47.2316 101.329L35.7807 141.043H26.8656L16.4157 103.023C15.2279 98.8499 14.0534 93.5041 13.7465 91.4111C13.7465 93.4908 13.3861 99.1965 13.1059 103.116L10.4367 141.11H0.0668335L5.79227 78.2933H19.6855L29.3613 113.874C30.816 119.14 31.3499 122.406 31.7236 124.312C32.2994 120.858 33.0567 117.436 33.9924 114.061L43.8951 78.2666H57.7616L63.3135 141.11H53.0371Z" fill="#05171D"/>
    <path d="M106.462 142.509C104.491 141.132 103.072 139.101 102.458 136.777C100.835 138.618 98.8245 140.079 96.5704 141.054C94.3162 142.029 91.8743 142.494 89.4192 142.416C84.241 142.416 80.2371 140.59 77.9683 137.87C76.1399 135.697 75.4326 132.698 75.4326 126.979V95.3038L85.2419 93.4774V124.792C85.2419 130.498 86.0694 134.684 91.9149 134.684C93.8072 134.527 95.628 133.89 97.2046 132.833C98.7812 131.777 100.061 130.335 100.923 128.645V95.3171L110.546 93.4907V128.658C110.546 135.55 113.362 137.83 113.362 137.83L106.462 142.509Z" fill="#05171D"/>
    <path d="M134.714 142.057C124.637 142.057 124.637 132.978 124.637 129.072V89.9452C124.733 85.4514 124.42 80.9581 123.703 76.5208L134.006 74.1878C134.74 77.0007 134.82 80.8534 134.82 86.7991V125.699C134.82 131.925 135.101 132.871 135.821 133.965C136.216 134.421 136.746 134.738 137.335 134.87C137.924 135.002 138.539 134.942 139.091 134.698L140.653 140.923C138.747 141.678 136.71 142.05 134.66 142.017" fill="#05171D"/>
    <path d="M160.153 95.1311H171.15L168.481 102.023H160.033V127.792C160.033 133.525 161.367 135.138 165.678 135.138C167.146 135.107 168.595 134.799 169.949 134.231L171.283 140.217C168.467 141.53 165.396 142.208 162.288 142.203C153.373 142.203 150.277 136.937 150.277 130.405V102.023H145.179V95.1311H150.183C150.099 91.3438 150.25 87.5548 150.637 83.7863L160.9 81.3201C160.373 85.8963 160.097 90.498 160.073 95.1044" fill="#05171D"/>
    <path d="M180.171 141.11V95.3714L190.247 93.545V141.097L180.171 141.11ZM178.836 81.747C178.852 80.4457 179.254 79.1783 179.99 78.1048C180.726 77.0313 181.765 76.1998 182.974 75.7152C184.183 75.2306 185.508 75.1147 186.783 75.3821C188.058 75.6495 189.226 76.2883 190.137 77.2177C191.049 78.1472 191.665 79.3256 191.907 80.6043C192.149 81.883 192.006 83.2047 191.497 84.4024C190.987 85.6001 190.134 86.6202 189.044 87.3339C187.955 88.0476 186.678 88.423 185.376 88.4125H185.282C184.425 88.4038 183.577 88.226 182.789 87.8894C182 87.5527 181.286 87.0638 180.687 86.4506C180.088 85.8375 179.616 85.1122 179.299 84.3165C178.981 83.5207 178.824 82.6702 178.836 81.8136V81.8136" fill="#05171D"/>
    <path d="M222.305 132.418C228.297 132.418 230.673 128.338 230.673 117.754C230.819 114.295 230.418 110.836 229.485 107.502C229.105 106.289 228.323 105.242 227.268 104.532C226.213 103.823 224.947 103.492 223.68 103.596C222.163 103.609 220.664 103.929 219.274 104.536C217.884 105.143 216.631 106.025 215.592 107.129V129.792C217.473 131.372 219.812 132.307 222.265 132.458L222.305 132.418ZM213.817 93.7042C214.251 95.1229 214.528 96.5847 214.644 98.0635C216.726 95.5306 221.317 93.7042 226.095 93.7042C229.364 93.7311 232.555 94.7085 235.277 96.5171C240.282 99.8765 243.912 105.849 243.912 116.514C243.912 126.485 242.27 131.578 237.466 136.75C235.876 138.455 233.945 139.806 231.796 140.713C229.648 141.621 227.333 142.065 225.001 142.016C221.592 142.053 218.233 141.198 215.258 139.537C215.419 140.801 215.481 142.076 215.445 143.349V157.867L203.727 160.973V107.289C203.874 103.372 203.628 99.4513 202.993 95.5839L213.817 93.7042Z" fill="#A1C517"/>
    <path d="M264.545 73.8009C265.165 77.5495 265.442 81.3468 265.372 85.1457V94.4775C265.372 95.9306 265.185 97.8369 265.185 98.3835C268.835 95.1784 273.512 93.3818 278.371 93.3176C284.27 93.3176 289.048 95.8506 290.463 99.9832C291.435 102.749 291.839 105.683 291.65 108.608V141.136H279.746V109.822C279.746 105.156 278.411 103.476 275.075 103.476C271.479 103.781 268.091 105.284 265.452 107.742V141.07H253.014V87.3186C253.101 83.7413 252.797 80.165 252.106 76.6537L264.545 73.8009Z" fill="#A1C517"/>
    <path d="M325.162 120.714C316.714 120.714 313.805 122.274 313.805 127.793C313.805 131.419 316.073 133.872 319.143 133.872C320.359 133.82 321.551 133.517 322.645 132.982C323.738 132.448 324.709 131.693 325.496 130.766L325.683 120.794L325.162 120.714ZM309.347 96.3046C313.355 94.5413 317.687 93.6331 322.066 93.6384C329.86 93.6384 335.252 96.5446 337.053 101.717C337.694 103.61 337.961 105.077 337.881 110.076L337.654 125.58V126.406C337.654 131.405 338.468 133.299 342.018 135.925L335.652 143.417C332.892 142.337 330.585 140.347 329.112 137.778C328.242 138.671 327.301 139.491 326.296 140.231C323.516 142.013 320.255 142.897 316.954 142.764C306.598 142.764 300.939 137.498 300.939 128.246C300.939 117.354 308.48 112.249 323.294 112.249C324.201 112.249 325.029 112.249 325.963 112.342V110.476C325.963 105.303 324.962 103.583 320.504 103.583C316.594 103.583 312.056 105.503 307.065 108.849L301.887 100.131C304.274 98.6241 306.798 97.3474 309.427 96.318" fill="#A1C517"/>
    <path d="M359.753 93.5041C360.901 95.5464 361.55 97.8299 361.649 100.17C363.466 97.7037 365.827 95.6877 368.548 94.2773C369.825 93.784 371.183 93.5353 372.552 93.5441C374.129 93.488 375.695 93.832 377.103 94.5439L373.74 105.209C372.665 104.593 371.443 104.28 370.203 104.302C368.748 104.353 367.323 104.731 366.034 105.407C364.745 106.083 363.625 107.041 362.756 108.208V141.11H350.598V109.981C350.768 105.38 350.182 100.782 348.863 96.3703L359.753 93.5041Z" fill="#A1C517"/>
    <path d="M392.025 93.7574C392.895 95.1797 393.454 96.7698 393.666 98.4233C395.159 96.9374 396.93 95.7604 398.879 94.9597C400.828 94.1591 402.916 93.7505 405.024 93.7574C406.772 93.6972 408.515 94.0016 410.139 94.6512C411.764 95.3007 413.235 96.2812 414.459 97.5301C415.131 98.2263 415.734 98.9852 416.261 99.7964C420.532 95.4371 424.349 93.7174 429.447 93.7174C432.751 93.6046 435.993 94.6308 438.629 96.6236C441.298 98.8899 442.085 101.623 442.085 107.968V141.096H430.274V110.435C430.274 104.889 429.634 103.769 426.457 103.769C423.402 104.138 420.556 105.512 418.37 107.675V141.123H406.825V110.821C406.825 105.022 405.998 103.649 402.648 103.649C399.648 103.857 396.815 105.106 394.64 107.182V141.11H382.736V108.662C382.736 101.996 382.282 99.0498 381.001 96.7702L392.025 93.7574Z" fill="#A1C517"/>
    <path d="M475.972 120.713C467.524 120.713 464.614 122.273 464.614 127.792C464.614 131.418 466.883 133.871 469.953 133.871C471.169 133.819 472.361 133.516 473.454 132.981C474.547 132.447 475.518 131.692 476.305 130.765L476.492 120.793L475.972 120.713ZM460.223 96.2903C464.231 94.5269 468.563 93.6188 472.942 93.6241C480.736 93.6241 486.128 96.5303 487.93 101.703C488.57 103.596 488.837 105.062 488.757 110.061L488.463 125.579V126.405C488.463 131.404 489.278 133.298 492.828 135.924L486.381 143.363C483.622 142.283 481.314 140.293 479.842 137.723C478.972 138.617 478.03 139.437 477.026 140.176C474.246 141.958 470.984 142.843 467.684 142.709C457.327 142.709 451.668 137.444 451.668 128.192C451.668 117.3 459.209 112.194 474.01 112.194C474.917 112.194 475.745 112.194 476.679 112.288V110.435C476.679 105.262 475.678 103.542 471.22 103.542C467.31 103.542 462.772 105.462 457.781 108.808L452.603 100.09C454.991 98.5923 457.516 97.3246 460.143 96.3036" fill="#A1C517"/>
  </g>
  <defs>
    <clipPath id="clip0_1_2">
      <rect width="646" height="161" fill="white"/>
    </clipPath>
  </defs>
</svg>
