<svg width="600" height="87" viewBox="0 0 600 87" fill="none"
  xmlns="http://www.w3.org/2000/svg">
  <path d="M486.4 0H568.8V15.6H486.4V0ZM517.6 38.3H600V22.7H517.6V38.3ZM541.8 46.9H459.4V62.5H541.8V46.9ZM509.1 69.6H426.7V85.2H509.1V69.6Z" fill="#00B3C4"/>
  <path d="M0 22.7H40.3V34H12.9V48.5H36.9V60H12.9V85.3H0V22.7ZM60.3 85.2H102.9V73.9H73.2V59.5H98.3V48.5H73.2V34.1H101.7V22.8H60.3V85.2ZM137.1 73.9V34H142.8C146.3 34 149.3 34.5 151.8 35.5C154.4 36.5 156.4 37.9 158.1 39.6C159.8 41.4 161 43.5 161.8 45.9C162.6 48.3 163 51 163 54C163 56.9 162.6 59.6 161.8 62C161 64.4 159.8 66.5 158.1 68.3C156.4 70.1 154.3 71.5 151.8 72.4C149.3 73.4 146.2 73.9 142.8 73.9H137.1ZM124.2 85.2H143.4C148.2 85.2 152.7 84.4 156.7 82.9C160.7 81.4 164.2 79.2 167.1 76.5C170 73.7 172.3 70.5 173.9 66.6C175.5 62.8 176.3 58.6 176.3 54C176.3 49.4 175.5 45.2 173.9 41.4C172.3 37.6 170 34.3 167.1 31.5C164.2 28.7 160.7 26.6 156.7 25.1C152.6 23.6 148.2 22.8 143.5 22.8H124.2V85.2ZM246.7 85.8H248V22.7H236V48.9C236 50 236 51.2 236.1 52.5C236.2 53.8 236.3 55.1 236.4 56.2C236.5 57.6 236.7 58.9 236.9 60.2C236 59.1 235.2 58 234.3 57C233.6 56.1 232.8 55.2 231.9 54.2C231 53.2 230.2 52.4 229.5 51.6L198 22H196.7V85.1H208.7V58.9C208.7 57.8 208.6 56.6 208.6 55.3C208.5 54 208.4 52.7 208.3 51.6C208.1 50.3 208 48.9 207.8 47.6C208.7 48.7 209.5 49.8 210.4 50.8C211.1 51.7 211.9 52.6 212.8 53.6C213.7 54.6 214.5 55.4 215.3 56.2L246.7 85.8ZM300.6 74.6C297.7 74.6 295.1 74.1 292.8 73C290.5 71.9 288.5 70.5 286.8 68.7C285.1 66.9 283.8 64.7 282.9 62.2C282 59.7 281.5 57 281.5 54C281.5 51.1 282 48.3 282.9 45.8C283.8 43.3 285.1 41.1 286.8 39.3C288.5 37.5 290.5 36 292.8 35C295.1 34 297.7 33.4 300.6 33.4C303.4 33.4 306 33.9 308.4 35C310.8 36 312.8 37.5 314.5 39.3C316.2 41.1 317.5 43.3 318.4 45.8C319.3 48.3 319.8 51 319.8 54C319.8 56.9 319.4 59.7 318.4 62.2C317.5 64.7 316.2 66.9 314.5 68.7C312.8 70.5 310.8 72 308.4 73C306 74.1 303.5 74.6 300.6 74.6ZM300.6 86.1C305.1 86.1 309.3 85.3 313.2 83.7C317.2 82.1 320.6 79.8 323.5 77C326.4 74.1 328.7 70.8 330.4 66.8C332.1 62.9 332.9 58.6 332.9 54C332.9 49.4 332 45.2 330.4 41.2C328.7 37.3 326.4 33.9 323.5 31C320.6 28.1 317.2 25.9 313.2 24.3C309.2 22.7 305 21.9 300.6 21.9C296.1 21.9 291.8 22.7 287.9 24.3C284 25.9 280.6 28.2 277.7 31C274.8 33.8 272.5 37.2 270.8 41.2C269.1 45.1 268.3 49.4 268.3 54C268.3 58.6 269.1 62.9 270.8 66.8C272.5 70.7 274.8 74.1 277.7 77C280.6 79.8 284 82.1 287.9 83.7C291.9 85.3 296.1 86.1 300.6 86.1ZM364.4 85.3H377.3V34.1H395.1V22.8H346.6V34.1H364.4V85.3Z" fill="#304753"/>
</svg>
