<svg width="256" height="256" viewBox="0 0 256 256" fill="none" xmlns="http://www.w3.org/2000/svg">
<g clip-path="url(#clip0_6139_14108)">
<path d="M254.613 143.598C263.223 73.6746 213.519 10.0101 143.595 1.39971C73.6709 -7.21063 10.0064 42.4938 1.39602 112.418C-7.21433 182.341 42.4901 246.006 112.414 254.616C182.338 263.227 246.002 213.522 254.613 143.598Z" fill="black"/>
<path d="M149.385 144.423C149.385 158.451 142.733 164.694 127.739 164.694C112.744 164.694 106.092 158.451 106.092 144.423V98.8398H124.064V80.9024H88.1544V144.423C88.1544 167.272 101.895 182.632 127.73 182.632C153.565 182.632 167.305 167.272 167.305 144.423V124.152H149.333V144.423H149.377H149.385ZM176.309 80.9024H167.323V71.9163C167.323 66.9617 163.291 62.9301 158.337 62.9301C153.382 62.9301 149.351 66.9617 149.351 71.9163V80.9024H131.413V98.8398H149.351V116.812H167.288V98.8398H176.274C181.229 98.8398 185.26 94.8082 185.26 89.8537C185.304 84.8991 181.272 80.9024 176.309 80.9024Z" fill="white"/>
</g>
<defs>
<clipPath id="clip0_6139_14108">
<rect width="256" height="256" fill="white"/>
</clipPath>
</defs>
</svg>
